<svg width="54" height="52" id="arrow" data-name="arrow" xmlns="http://www.w3.org/2000/svg" viewBox="0 0 53.9984 51.9998"><defs><style>.cls-1{fill:#fff;fill-rule:evenodd;}</style></defs><title>arrow</title><path class="cls-1" d="M1.639,21.27a5.5271,5.5271,0,0,1,7.8248,0L21.417,33.2407V5.5674a5.533,5.533,0,1,1,11.0659,0V33.3762L44.5716,21.27a5.5369,5.5369,0,0,1,7.8247,7.836L32.0172,49.5149a5.5278,5.5278,0,0,1-1.184.9023,5.5174,5.5174,0,0,1-7.9609-.2021,5.5484,5.5484,0,0,1-.8541-.7L1.639,29.1061A5.5466,5.5466,0,0,1,1.639,21.27Z" transform="translate(-0.0185 -0.0156)"/></svg>