<svg width="99" height="99" id="step1" data-name="step1" xmlns="http://www.w3.org/2000/svg" viewBox="0 0 98.5001 98.5"><defs><style>.cls-1{fill:#626262;fill-rule:evenodd;}</style></defs><title>step1</title><path class="cls-1" d="M96.4323,51.8175H69.9267a2.0678,2.0678,0,0,1,0-4.1356H96.4323A2.0451,2.0451,0,0,1,98.5,49.75,2.0769,2.0769,0,0,1,96.4323,51.8175Zm-31.0949-15.23a2.07,2.07,0,0,1-2.9249,0,2.07,2.07,0,0,1,0-2.925L82.0017,14.0728a2.0684,2.0684,0,1,1,2.925,2.9254ZM49.25,63.87A14.1206,14.1206,0,1,1,63.3707,49.75,14.13,14.13,0,0,1,49.25,63.87Zm0-24.1563A10.0358,10.0358,0,1,0,59.2857,49.75,10.0295,10.0295,0,0,0,49.25,39.714Zm0-8.5734a2.0451,2.0451,0,0,1-2.0678-2.0675V2.5672a2.0677,2.0677,0,0,1,4.1354,0V29.0731A2.045,2.045,0,0,1,49.25,31.1406ZM34.6249,37.1924a2.02,2.02,0,0,1-1.4625-.6052L13.5731,16.9982a2.0685,2.0685,0,0,1,2.9251-2.9254L36.0874,33.6622a2.07,2.07,0,0,1,0,2.925A2.02,2.02,0,0,1,34.6249,37.1924ZM30.6409,49.75a2.0451,2.0451,0,0,1-2.0678,2.0678H2.0676A2.0769,2.0769,0,0,1,0,49.75a2.0451,2.0451,0,0,1,2.0677-2.0678H28.5731A2.0451,2.0451,0,0,1,30.6409,49.75Zm2.5215,13.1625a2.0683,2.0683,0,0,1,2.925,2.9251L16.4982,85.4267a2.1058,2.1058,0,0,1-1.4625.6051,2.02,2.02,0,0,1-1.4626-.6051,2.07,2.07,0,0,1,0-2.9254ZM49.25,68.3589a2.045,2.045,0,0,1,2.0676,2.0675V96.9323a2.0677,2.0677,0,0,1-4.1354,0V70.4264A2.0451,2.0451,0,0,1,49.25,68.3589Zm16.0874-5.4467L84.9267,82.5013a2.07,2.07,0,0,1,0,2.9254,2.07,2.07,0,0,1-2.925,0L62.4125,65.8373a2.0683,2.0683,0,0,1,2.9249-2.9251Z" transform="translate(0.0001 -0.4997)"/></svg>