<svg width="74" height="50" id="step2" data-name="step2" xmlns="http://www.w3.org/2000/svg" viewBox="0 0 73.3553 49.4875"><defs><style>.cls-1{fill:#626262;}</style></defs><title>step2</title><path class="cls-1" d="M29.6926,49.487A1.7317,1.7317,0,0,0,31.47,47.7353V1.7512a1.7651,1.7651,0,0,0-3.53,0V47.7353A1.7258,1.7258,0,0,0,29.6926,49.487Zm27.94-5.0043a1.7467,1.7467,0,0,0,1.7525-1.7764V6.78a1.7467,1.7467,0,0,0-1.7525-1.7763A1.7678,1.7678,0,0,0,55.8553,6.78V42.7063A1.7678,1.7678,0,0,0,57.6328,44.4827ZM15.7476,40.4293A1.7256,1.7256,0,0,0,17.5,38.678v-27.87a1.765,1.765,0,0,0-3.53,0v27.87A1.7316,1.7316,0,0,0,15.7476,40.4293Zm27.9151-2.7022A1.7469,1.7469,0,0,0,45.44,35.9758V13.5107a1.7469,1.7469,0,0,0-1.7775-1.7513A1.7257,1.7257,0,0,0,41.91,13.5107V35.9758A1.7257,1.7257,0,0,0,43.6627,37.7271Zm27.94-4.4786a1.7467,1.7467,0,0,0,1.7524-1.7767V18.0146a1.765,1.765,0,1,0-3.53,0V31.4718A1.7523,1.7523,0,0,0,71.6029,33.2485ZM1.7775,31.2719A1.7257,1.7257,0,0,0,3.53,29.52v-9.554a1.7255,1.7255,0,0,0-1.7524-1.7513A1.7314,1.7314,0,0,0,0,19.9662V29.52A1.7317,1.7317,0,0,0,1.7775,31.2719Z" transform="translate(0 0.0005)"/></svg>