<svg width="88" height="88" id="step5" data-name="step5" xmlns="http://www.w3.org/2000/svg" viewBox="0 0 87.9999 87.9997"><defs><style>.cls-1{fill:#626262;fill-rule:evenodd;}</style></defs><title>step5</title><path class="cls-1" d="M86.2812,56.7187H78.8859A37.261,37.261,0,0,1,56.7187,78.8859v7.395A1.7189,1.7189,0,0,1,55,88H33a1.7186,1.7186,0,0,1-1.7187-1.7188v-7.395a36.9919,36.9919,0,0,1-7.9888-4.077A7.2135,7.2135,0,1,1,25.4811,72.14a33.49,33.49,0,0,0,8.0525,3.8874,1.7185,1.7185,0,0,1,1.1851,1.6333v6.9012H53.2812V77.661a1.7185,1.7185,0,0,1,1.1851-1.6333A33.7949,33.7949,0,0,0,76.0278,54.466a1.7184,1.7184,0,0,1,1.6335-1.1848h6.9011V34.7185H77.6613a1.7188,1.7188,0,0,1,0-3.4375h8.62A1.7187,1.7187,0,0,1,88,33V55A1.7187,1.7187,0,0,1,86.2812,56.7187ZM18.966,65.2524a3.7814,3.7814,0,1,0,3.7812,3.7812A3.7855,3.7855,0,0,0,18.966,65.2524ZM65.68,54.466a1.7187,1.7187,0,0,1,3.2675,1.0675,20.8607,20.8607,0,0,1-7.5255,10.3859,1.7189,1.7189,0,0,1-2.0357-2.77A17.4343,17.4343,0,0,0,65.68,54.466ZM54.4889,65.673A1.7189,1.7189,0,0,1,55.5578,68.94l-.018.0057a1.7187,1.7187,0,0,1-1.083-3.2623ZM25.2575,48.024a1.7187,1.7187,0,0,1-.0127-1.7112L43.8186,13.3846a1.719,1.719,0,0,1,3.1878,1.1562L42.7781,37.493h18.48a1.7184,1.7184,0,0,1,1.3509,2.7812L38.686,70.6722a1.7191,1.7191,0,0,1-2.98-1.61L42.482,48.8759H26.742A1.7178,1.7178,0,0,1,25.2575,48.024ZM44.872,45.4387a1.7191,1.7191,0,0,1,1.63,2.266L42.1235,60.7463,57.7183,40.93H40.7142a1.7184,1.7184,0,0,1-1.6906-2.03l2.74-14.8752L29.6846,45.4387ZM69.0339,26.1848A7.2166,7.2166,0,0,1,62.52,15.8586a33.4957,33.4957,0,0,0-8.0532-3.8867,1.7184,1.7184,0,0,1-1.1851-1.6336V3.4375H34.7187v6.9008a1.7184,1.7184,0,0,1-1.1851,1.6336A33.7952,33.7952,0,0,0,11.9721,33.5333a1.7181,1.7181,0,0,1-1.6335,1.1852H3.4375V53.2812h6.9011a1.7188,1.7188,0,0,1,0,3.4375h-8.62A1.7188,1.7188,0,0,1,0,55V33A1.7188,1.7188,0,0,1,1.7187,31.281H9.114A37.26,37.26,0,0,1,31.2812,9.1138V1.7187A1.7185,1.7185,0,0,1,33,0H55a1.7185,1.7185,0,0,1,1.7187,1.7187V9.1138a36.9577,36.9577,0,0,1,7.9922,4.0741,7.2177,7.2177,0,1,1,4.323,12.9969Zm0-11a3.7814,3.7814,0,1,0,3.7812,3.7816A3.7855,3.7855,0,0,0,69.0339,15.1845Z"/></svg>