<svg width="82" height="82" id="step4" data-name="step4" xmlns="http://www.w3.org/2000/svg" viewBox="0 0 81.9999 81.9995"><defs><style>.cls-1{fill:#505050;fill-rule:evenodd;}</style></defs><title>step4</title><path class="cls-1" d="M78.3164,61.9329h-30.75v6.933h4.0424a1.1233,1.1233,0,0,1,.7256.2675l6.4114,5.446a1.1174,1.1174,0,0,1,.3953.8533v5.4452A1.1207,1.1207,0,0,1,58.02,81.9991H23.9792a1.1208,1.1208,0,0,1-1.1211-1.1212V75.4327a1.1166,1.1166,0,0,1,.3955-.8533l6.4111-5.446a1.1237,1.1237,0,0,1,.7256-.2675h4.0432V61.9344H3.6836A3.688,3.688,0,0,1,0,58.2508V53.799a1.135,1.135,0,0,1,.0508-.3172c.006-.0207.0117-.0407.0192-.0611a1.1238,1.1238,0,0,1,.1427-.275c.0042-.005.0042-.0111.0083-.0158L13.0435,35.8561a1.1234,1.1234,0,0,1,.9-.4527H68.0563a1.1235,1.1235,0,0,1,.9.4527L81.779,53.1289c.004.005.0049.011.0083.0157a1.1251,1.1251,0,0,1,.1426.2761c.0075.02.0133.0393.0192.06A1.1347,1.1347,0,0,1,82,53.798v4.4514A3.6879,3.6879,0,0,1,78.3164,61.9329ZM30.8025,71.1082,25.1011,75.953v3.8084H56.8988V75.953l-5.7023-4.8448Zm14.5217-2.243V61.9329H36.6757v6.9323ZM3.35,52.6768H20.3656l3.06-7.3357H8.7953Zm19.4455,0H39.7337V45.34H25.8551Zm-8.2879-15.03-4.0484,5.4524h13.902l2.2738-5.4524Zm25.2294,0H29.0649l-2.2738,5.4524H39.737Zm12.9119,0H41.9818v5.4524H54.9227ZM41.9758,45.34v7.336h16.94l-3.06-7.336Zm25.5159-7.6937H55.0753l2.2738,5.4524h14.19ZM73.204,45.34h-14.92l3.06,7.3367,17.3045-.0007Zm6.5538,9.5772H2.2422v3.3321a1.4425,1.4425,0,0,0,1.4414,1.4412H78.3164a1.4426,1.4426,0,0,0,1.4414-1.4412ZM55.81,17.1965H51.8863a1.1212,1.1212,0,0,1,0-2.2423H55.81A1.1212,1.1212,0,0,1,55.81,17.1965ZM49.4474,9.0684a1.1207,1.1207,0,1,1-1.5848-1.585l2.7743-2.7745a1.1211,1.1211,0,0,1,1.5849,1.585Zm.0007,14.0151,2.7745,2.7744a1.1213,1.1213,0,0,1-1.5857,1.5858l-2.7743-2.7745a1.1212,1.1212,0,0,1,1.5855-1.5857Zm-7.4723,4.024v3.9239a1.1211,1.1211,0,1,1-2.2421,0V27.1075A1.1211,1.1211,0,1,1,41.9758,27.1075Zm5.7992-8.2251a7.3338,7.3338,0,1,1-1.59-7.9923A7.3334,7.3334,0,0,1,47.775,18.8824Zm-2.0714-4.755A5.0913,5.0913,0,1,0,44.6,19.6756,5.0906,5.0906,0,0,0,45.7036,14.1274ZM40.8548,6.1659a1.1213,1.1213,0,0,1-1.1211-1.1208V1.1208a1.1211,1.1211,0,1,1,2.2421,0V5.0451A1.1207,1.1207,0,0,1,40.8548,6.1659ZM32.2631,9.0684,29.4879,6.2946a1.1213,1.1213,0,1,1,1.5858-1.5857l2.7752,2.7734A1.1214,1.1214,0,0,1,32.2631,9.0684Zm1.5858,15.6008-2.7743,2.7745a1.1213,1.1213,0,0,1-1.5858-1.5858l2.7743-2.7744A1.1213,1.1213,0,0,1,33.8489,24.6692Zm-4.024-7.4727H25.9011a1.1212,1.1212,0,0,1,0-2.2423h3.9238A1.1212,1.1212,0,0,1,29.8249,17.1965Z" transform="translate(0 0.0004)"/></svg>