<svg width="85" height="83" id="step3" data-name="step3" xmlns="http://www.w3.org/2000/svg" viewBox="0 0 84.8839 82.2938"><defs><style>.cls-1{fill:#626262;fill-rule:evenodd;}</style></defs><title>step3</title><path class="cls-1" d="M77.23,0A7.7692,7.7692,0,0,0,70.4,11.474L66.441,15.4325a10.2921,10.2921,0,0,0-12.6849-.0014l-6.173-6.173a5.1111,5.1111,0,0,0,.7343-2.6146,5.18,5.18,0,1,0-5.18,5.18,5.11,5.11,0,0,0,2.6147-.7342l6.173,6.173a10.2933,10.2933,0,0,0,0,12.6847L13.0976,68.776a7.6906,7.6906,0,1,0,1.6188,2.0434l39.041-39.0408a10.2969,10.2969,0,0,0,5.048,2.0965v5.64a7.77,7.77,0,1,0,2.59,0v-5.64a10.2977,10.2977,0,0,0,5.048-2.0965l2.4143,2.4144a5.1073,5.1073,0,0,0-.7356,2.6157,5.18,5.18,0,1,0,5.18-5.18,5.11,5.11,0,0,0-2.6146.7342l-2.4144-2.4143a10.2939,10.2939,0,0,0,0-12.6851L72.02,13.5174A7.7649,7.7649,0,1,0,77.23,0ZM40.5472,6.6435a2.59,2.59,0,1,1,2.59,2.59A2.5926,2.5926,0,0,1,40.5472,6.6435ZM7.8863,79.7036a5.18,5.18,0,1,1,5.18-5.18A5.1855,5.1855,0,0,1,7.8863,79.7036ZM65.2794,47.1692a5.18,5.18,0,1,1-5.18-5.18A5.1855,5.1855,0,0,1,65.2794,47.1692Zm-5.18-15.7932a7.77,7.77,0,1,1,7.77-7.7706A7.7783,7.7783,0,0,1,60.0992,31.376Zm15.7933,5.4327a2.59,2.59,0,1,1-2.59-2.59A2.5927,2.5927,0,0,1,75.8925,36.8087ZM77.23,12.95a5.18,5.18,0,1,1,5.18-5.18A5.1853,5.1853,0,0,1,77.23,12.95Z" transform="translate(-0.1161 0.0002)"/></svg>